# xmcd
#
# Track frame offsets: 
#        150
#        44570
#        88723
#        118605
#        126165
#        150481
#
# Disc length: 2505 seconds
#
# Revision: 7
# Processed by: cddbd v1.5.2PL0 Copyright (c) Steve Scherf et al.
# Submitted via: ExactAudioCopy v1.3
#
DISCID=4809c706
DTITLE=Alcest - Écailles De Lune
DYEAR=2010
DGENRE=Post Black Metal
TTITLE0=Écailles De Lune - Part 1
TTITLE1=Écailles De Lune - Part 2
TTITLE2=Percées De Lumière
TTITLE3=Abysses
TTITLE4=Solar Song
TTITLE5=Sur L'Ocean Couleur De Fer
EXTD=YEAR: 2010
EXTT0=
EXTT1=
EXTT2=
EXTT3=
EXTT4=
EXTT5=
PLAYORDER=
